Coordinates
version=1
nRows=10
nColumns=34
inDegrees=yes

Units are S.I. units (second, meters, Newtons, ...)
If the header above contains a line with 'inDegrees', this indicates whether rotational values are in degrees (yes) or radians (no).

endheader
time	pelvis_tilt	pelvis_list	pelvis_rotation	pelvis_tx	pelvis_ty	pelvis_tz	hip_flexion_r	hip_adduction_r	hip_rotation_r	knee_angle_r	ankle_angle_r	subtalar_angle_r	mtp_angle_r	hip_flexion_l	hip_adduction_l	hip_rotation_l	knee_angle_l	ankle_angle_l	subtalar_angle_l	mtp_angle_l	lumbar_extension	lumbar_bending	lumbar_rotation	arm_flex_r	arm_add_r	arm_rot_r	elbow_flex_r	pro_sup_r	arm_flex_l	arm_add_l	arm_rot_l	elbow_flex_l	pro_sup_l
      3.35000000	    -10.15775750	      3.64692138	      4.48465208	      1.88508374	      0.93620464	     -0.13776764	      3.40558344	     -8.41660781	    -17.63272718	      3.49885722	     -8.50515179	      0.51310077	      0.00000000	      6.81459789	     -2.41884902	     -5.08343689	      2.83598109	    -15.98322662	      2.77946528	      0.00000000	      0.12490146	     -7.75965638	     12.19117896	    133.50043486	    -15.45039961	     14.60905553	     27.44565670	     90.40971618	    118.94940594	     10.34702795	     23.36987595	     86.12003348	     89.66710883
      3.36666670	    -10.77162057	      3.43307026	      4.96381555	      1.88867714	      0.93475323	     -0.13761627	      3.43214051	     -8.25437477	    -16.96682398	      2.75378576	     -9.89768670	      0.29230002	      0.00000000	      7.15635768	     -2.31262366	     -5.09240177	      2.34605638	    -16.53327410	      2.18377040	      0.00000000	      0.26416632	     -8.03543487	     12.95421196	    143.56182327	    -15.40777625	     21.57727453	     16.71684021	     88.66218289	    122.33903782	      9.68141500	     22.98470610	     86.30446054	     89.52697211
      3.38333330	    -11.33616415	      3.27599304	      5.35044350	      1.89283927	      0.93370770	     -0.13624511	      3.50588532	     -8.17347967	    -16.00400420	      2.22301130	    -11.14130439	      0.01889049	      0.00000000	      7.55959884	     -2.24984788	     -5.29383469	      2.22854742	    -17.04296717	      1.56931276	      0.00000000	      0.52895747	     -8.37533037	     13.41877432	    150.86555519	    -14.02319214	     29.53792743	      9.39658642	     83.50793806	    124.64078441	      8.14146194	     23.03961496	     86.18159049	     89.36508376
      3.40000000	    -12.01808377	      3.19460526	      5.74905695	      1.89769771	      0.93271652	     -0.13494713	      3.77345448	     -8.19546199	    -14.81768275	      1.93004412	    -12.33112360	     -1.00358553	      0.00000000	      8.00495907	     -2.14436542	     -5.36186020	      2.07993184	    -17.82308521	      0.63476210	      0.00000000	      1.52090430	     -8.86240553	     13.01095087	    154.05614765	    -12.28020286	     31.59869192	      7.21027610	     80.81008685	    125.57883647	      5.77892442	     24.65529587	     86.00052389	     89.52505274
      3.41666670	    -12.45511136	      3.08280014	      6.01279392	      1.90236501	      0.92991219	     -0.13481476	      3.96292720	     -8.20867573	    -13.71621621	      2.04252828	    -12.55019543	     -1.08706787	      0.00000000	      8.33243879	     -2.12501847	     -5.65234702	      2.33699314	    -17.56300955	      0.19122065	      0.00000000	      1.93756982	     -8.93307010	     12.74437385	    156.70900165	    -10.15777575	     32.62520016	      7.75999092	     79.57568185	    125.49246051	      3.78977053	     24.31548408	     87.90169747	     89.58494347
      3.43333330	    -12.65773524	      2.92964981	      6.20224244	      1.90734431	      0.92738988	     -0.13623346	      3.88380572	     -8.15962234	    -12.71040922	      2.24728237	    -12.94178114	     -1.59441510	      0.00000000	      8.23906008	     -2.09414609	     -5.92959271	      2.41542123	    -17.11892036	     -0.34874624	      0.00000000	      2.35214945	     -8.65436922	     12.07730817	    158.06402874	     -7.58909968	     33.74968742	      8.87298508	     78.47253839	    124.80036859	      1.87227527	     23.80575368	     89.58469644	     89.70095399
      3.45000000	    -12.66217348	      2.69423412	      6.21949509	      1.91223328	      0.92658166	     -0.13813669	      3.71561353	     -8.03041226	    -11.76721154	      2.72003455	    -12.74043848	     -1.94243990	      0.00000000	      7.89781184	     -2.12302572	     -6.35514782	      2.58753358	    -16.35241412	     -0.91761302	      0.00000000	      2.55314439	     -8.20130517	     11.59160120	    158.81806580	     -5.50390813	     34.58638651	     11.00442373	     77.99263071	    123.75578797	      0.52328161	     23.36012782	     91.24120840	     89.83504198
      3.46666670	    -12.54555097	      2.63634809	      6.20049645	      1.91701469	      0.92737997	     -0.13939283	      3.31959201	     -8.08326405	    -11.03686122	      3.10628297	    -12.56595580	     -2.33466220	      0.00000000	      7.27349837	     -1.89807114	     -6.83521544	      2.61738478	    -15.44212372	     -1.43359164	      0.00000000	      2.75053058	     -7.75165955	     11.16406360	    158.67506423	     -3.71536128	     35.58175566	     13.86477301	     77.66267366	    121.33404588	     -1.26765756	     23.15828039	     94.20135682	     90.11627127
      3.48333330	    -12.33225788	      2.46983263	      6.07964011	      1.92128566	      0.92772441	     -0.13946128	      2.89397677	     -7.97125513	    -10.53780353	      3.57383577	    -12.05926561	     -2.55021462	      0.00000000	      6.41507339	     -1.78901055	     -7.30750502	      2.40232343	    -14.34917531	     -1.92791515	      0.00000000	      2.84259101	     -7.19181436	     10.85362366	    158.11991658	     -2.22363009	     36.44078546	     16.69482347	     77.55100524	    118.34861546	     -3.06180982	     23.48641228	     97.24244115	     90.52665126
      3.50000000	    -12.04488322	      2.27930018	      5.92281521	      1.92551782	      0.92480101	     -0.13930628	      2.39094561	     -7.75993340	    -10.17180142	      3.97887314	    -11.25614242	     -2.67507090	      0.00000000	      5.45775690	     -1.76113855	     -7.75509790	      2.19293087	    -13.08919084	     -2.45506302	      0.00000000	      2.79654550	     -6.72072999	     10.48022541	    157.43744973	     -1.10523981	     37.01582262	     19.22714339	     77.63311822	    115.42817908	     -4.83454530	     24.24748642	     99.71985884	     91.02297417
